HIERARCHY
ROOT bvh1s5g
{
	OFFSET 11.3 40.5 -1.7
	CHANNELS 0
	JOINT sm-G-Z6
	{
		OFFSET 1.844 -24.157 -2.098
		CHANNELS 6 Xposition Yposition Zposition Xrotation Yrotation Zrotation
		End Site
		{
			OFFSET 0.249 7.931 -0.173
		}
	}
	JOINT sm-T-Z15
	{
		OFFSET 6.427 -10.249 -6.747
		CHANNELS 6 Xposition Yposition Zposition Xrotation Yrotation Zrotation
		End Site
		{
			OFFSET -1.867 13.916 -0.843
		}
	}
	JOINT sm-T-Z23
	{
		OFFSET -0.294 11.639 -3.186
		CHANNELS 6 Xposition Yposition Zposition Xrotation Yrotation Zrotation
		End Site
		{
			OFFSET -13.051 -4.639 0.813
		}
	}
	JOINT sm-E-Z35
	{
		OFFSET -13.891 3.224 -2.768
		CHANNELS 6 Xposition Yposition Zposition Xrotation Yrotation Zrotation
		End Site
		{
			OFFSET 7.119 17.064 -3.868
		}
	}
	JOINT sm-S-Z45
	{
		OFFSET -11.364 23.226 -0.461
		CHANNELS 6 Xposition Yposition Zposition Xrotation Yrotation Zrotation
		End Site
		{
			OFFSET 1.648 -8.452 -8.179
		}
	}
	JOINT sm-T-Z54
	{
		OFFSET -10.093 6.179 -14.285
		CHANNELS 6 Xposition Yposition Zposition Xrotation Yrotation Zrotation
		End Site
		{
			OFFSET -4.439 9.547 8.784
		}
	}
	JOINT sm-G-Z73
	{
		OFFSET 2.827 -2.446 -1.186
		CHANNELS 6 Xposition Yposition Zposition Xrotation Yrotation Zrotation
		End Site
		{
			OFFSET -2.642 -6.298 6.902
		}
	}
	JOINT sm-T-Z81
	{
		OFFSET 0.116 -3.193 9.122
		CHANNELS 6 Xposition Yposition Zposition Xrotation Yrotation Zrotation
		End Site
		{
			OFFSET -4.550 5.959 -1.406
		}
	}
	JOINT sm-H-Z89
	{
		OFFSET -9.017 1.386 4.208
		CHANNELS 6 Xposition Yposition Zposition Xrotation Yrotation Zrotation
		End Site
		{
			OFFSET 1.500 -13.145 -7.033
		}
	}
	JOINT sm-T-Z102
	{
		OFFSET -6.445 -15.351 -1.828
		CHANNELS 6 Xposition Yposition Zposition Xrotation Yrotation Zrotation
		End Site
		{
			OFFSET 2.099 5.187 11.089
		}
	}
	JOINT sm-_-Z117
	{
		OFFSET -14.953 -19.971 -0.760
		CHANNELS 6 Xposition Yposition Zposition Xrotation Yrotation Zrotation
		End Site
		{
			OFFSET 8.790 -6.470 1.908
		}
	}
	JOINT sm-_-Z126
	{
		OFFSET -0.744 -31.044 5.086
		CHANNELS 6 Xposition Yposition Zposition Xrotation Yrotation Zrotation
		End Site
		{
			OFFSET 4.331 3.593 4.375
		}
	}
	JOINT sm-_-Z136
	{
		OFFSET 4.965 -17.705 13.483
		CHANNELS 6 Xposition Yposition Zposition Xrotation Yrotation Zrotation
		End Site
		{
			OFFSET -4.426 -0.012 -6.125
		}
	}
	JOINT sm-H-Z145
	{
		OFFSET -3.810 -21.606 11.624
		CHANNELS 6 Xposition Yposition Zposition Xrotation Yrotation Zrotation
		End Site
		{
			OFFSET 6.632 -1.991 16.228
		}
	}
	JOINT sm-_-Z160
	{
		OFFSET -4.092 -22.041 29.257
		CHANNELS 6 Xposition Yposition Zposition Xrotation Yrotation Zrotation
		End Site
		{
			OFFSET -9.812 5.172 -11.688
		}
	}
	JOINT sm-H-Z175
	{
		OFFSET -17.502 -22.539 10.404
		CHANNELS 6 Xposition Yposition Zposition Xrotation Yrotation Zrotation
		End Site
		{
			OFFSET 11.069 -8.392 5.470
		}
	}
	JOINT sm-T-Z188
	{
		OFFSET -3.096 -34.577 17.358
		CHANNELS 6 Xposition Yposition Zposition Xrotation Yrotation Zrotation
		End Site
		{
			OFFSET -8.182 -9.960 1.795
		}
	}
	JOINT sm-H-Z197
	{
		OFFSET -12.858 -39.265 18.669
		CHANNELS 6 Xposition Yposition Zposition Xrotation Yrotation Zrotation
		End Site
		{
			OFFSET -17.126 9.554 -4.870
		}
	}
	JOINT sm-S-Z217
	{
		OFFSET -27.860 -19.500 3.048
		CHANNELS 6 Xposition Yposition Zposition Xrotation Yrotation Zrotation
		End Site
		{
			OFFSET 0.851 -2.979 8.639
		}
	}
	JOINT sm-E-Z226
	{
		OFFSET -21.763 -21.981 20.886
		CHANNELS 6 Xposition Yposition Zposition Xrotation Yrotation Zrotation
		End Site
		{
			OFFSET 12.684 -8.644 5.393
		}
	}
	JOINT sm-_-Z234
	{
		OFFSET -0.950 -33.604 28.783
		CHANNELS 6 Xposition Yposition Zposition Xrotation Yrotation Zrotation
		End Site
		{
			OFFSET -10.941 0.022 -3.039
		}
	}
	JOINT sm-G-Z251
	{
		OFFSET -38.336 -22.022 15.125
		CHANNELS 6 Xposition Yposition Zposition Xrotation Yrotation Zrotation
		End Site
		{
			OFFSET -1.263 2.499 -10.524
		}
	}
	JOINT sm-_-Z261
	{
		OFFSET -35.826 -25.142 6.879
		CHANNELS 6 Xposition Yposition Zposition Xrotation Yrotation Zrotation
		End Site
		{
			OFFSET -0.056 -9.576 1.447
		}
	}
	JOINT sm-S-Z274
	{
		OFFSET -36.467 -46.481 6.141
		CHANNELS 6 Xposition Yposition Zposition Xrotation Yrotation Zrotation
		End Site
		{
			OFFSET -6.255 1.557 5.882
		}
	}
	JOINT sm-G-Z288
	{
		OFFSET -45.419 -31.975 3.661
		CHANNELS 6 Xposition Yposition Zposition Xrotation Yrotation Zrotation
		End Site
		{
			OFFSET 2.388 6.678 1.740
		}
	}
	JOINT sm-_-Z298
	{
		OFFSET -35.836 -27.528 -0.420
		CHANNELS 6 Xposition Yposition Zposition Xrotation Yrotation Zrotation
		End Site
		{
			OFFSET 6.495 -6.491 1.149
		}
	}
	JOINT sm-H-Z308
	{
		OFFSET -28.506 -38.668 5.122
		CHANNELS 6 Xposition Yposition Zposition Xrotation Yrotation Zrotation
		End Site
		{
			OFFSET 5.638 -5.233 12.578
		}
	}
	JOINT sm-H-Z324
	{
		OFFSET -33.184 -45.956 21.569
		CHANNELS 6 Xposition Yposition Zposition Xrotation Yrotation Zrotation
		End Site
		{
			OFFSET -12.743 13.010 -7.820
		}
	}
	JOINT sm-S-Z349
	{
		OFFSET -70.683 -21.762 19.345
		CHANNELS 6 Xposition Yposition Zposition Xrotation Yrotation Zrotation
		End Site
		{
			OFFSET 8.427 -6.104 -1.554
		}
	}
	JOINT sm-H-Z360
	{
		OFFSET -54.750 -36.818 15.162
		CHANNELS 6 Xposition Yposition Zposition Xrotation Yrotation Zrotation
		End Site
		{
			OFFSET 7.986 -3.578 5.900
		}
	}
	JOINT sm-H-Z373
	{
		OFFSET -56.742 -36.857 25.240
		CHANNELS 6 Xposition Yposition Zposition Xrotation Yrotation Zrotation
		End Site
		{
			OFFSET -0.077 8.825 0.389
		}
	}
	JOINT sm-T-Z388
	{
		OFFSET -55.770 -22.164 43.455
		CHANNELS 6 Xposition Yposition Zposition Xrotation Yrotation Zrotation
		End Site
		{
			OFFSET -4.471 1.013 -15.818
		}
	}
	JOINT sm-H-Z398
	{
		OFFSET -56.595 -19.316 18.996
		CHANNELS 6 Xposition Yposition Zposition Xrotation Yrotation Zrotation
		End Site
		{
			OFFSET 36.551 -18.534 7.230
		}
	}
	JOINT sm-_-Z433
	{
		OFFSET -6.994 -31.565 32.955
		CHANNELS 6 Xposition Yposition Zposition Xrotation Yrotation Zrotation
		End Site
		{
			OFFSET -6.979 9.477 -11.464
		}
	}
	JOINT sm-_-Z443
	{
		OFFSET -22.331 -13.038 15.926
		CHANNELS 6 Xposition Yposition Zposition Xrotation Yrotation Zrotation
		End Site
		{
			OFFSET -10.602 8.350 -3.832
		}
	}
	JOINT sm-H-Z454
	{
		OFFSET -33.348 -9.748 18.582
		CHANNELS 6 Xposition Yposition Zposition Xrotation Yrotation Zrotation
		End Site
		{
			OFFSET 39.844 8.262 10.271
		}
	}
	JOINT sm-_-Z487
	{
		OFFSET 2.722 5.674 29.544
		CHANNELS 6 Xposition Yposition Zposition Xrotation Yrotation Zrotation
		End Site
		{
			OFFSET -13.862 -4.902 -0.609
		}
	}
	JOINT sm-H-Z497
	{
		OFFSET -18.687 0.578 27.655
		CHANNELS 6 Xposition Yposition Zposition Xrotation Yrotation Zrotation
		End Site
		{
			OFFSET -9.865 -3.983 2.512
		}
	}
	JOINT sm-S-Z510
	{
		OFFSET -33.488 -4.471 31.146
		CHANNELS 6 Xposition Yposition Zposition Xrotation Yrotation Zrotation
		End Site
		{
			OFFSET -5.740 -3.744 1.077
		}
	}
	JOINT sm-T-Z518
	{
		OFFSET -45.000 -9.555 33.257
		CHANNELS 6 Xposition Yposition Zposition Xrotation Yrotation Zrotation
		End Site
		{
			OFFSET -5.038 3.415 -4.648
		}
	}
	JOINT sm-H-Z526
	{
		OFFSET -46.707 -1.126 25.799
		CHANNELS 6 Xposition Yposition Zposition Xrotation Yrotation Zrotation
		End Site
		{
			OFFSET 9.768 6.437 5.922
		}
	}
	JOINT sm-T-Z538
	{
		OFFSET -32.460 9.264 29.081
		CHANNELS 6 Xposition Yposition Zposition Xrotation Yrotation Zrotation
		End Site
		{
			OFFSET 2.801 -3.084 -5.102
		}
	}
	JOINT sm-_-Z546
	{
		OFFSET -34.531 8.411 15.580
		CHANNELS 6 Xposition Yposition Zposition Xrotation Yrotation Zrotation
		End Site
		{
			OFFSET 2.605 -5.571 -11.599
		}
	}
	JOINT sm-_-Z555
	{
		OFFSET -37.764 0.597 10.659
		CHANNELS 6 Xposition Yposition Zposition Xrotation Yrotation Zrotation
		End Site
		{
			OFFSET 8.746 1.665 9.780
		}
	}
	JOINT sm-_-Z572
	{
		OFFSET -41.169 -4.769 19.300
		CHANNELS 6 Xposition Yposition Zposition Xrotation Yrotation Zrotation
		End Site
		{
			OFFSET -0.964 -7.616 4.977
		}
	}
	JOINT sm-H-Z586
	{
		OFFSET -50.307 -27.907 30.771
		CHANNELS 6 Xposition Yposition Zposition Xrotation Yrotation Zrotation
		End Site
		{
			OFFSET 3.332 -6.785 0.002
		}
	}
	JOINT sm-S-Z596
	{
		OFFSET -41.130 -41.779 27.991
		CHANNELS 6 Xposition Yposition Zposition Xrotation Yrotation Zrotation
		End Site
		{
			OFFSET 2.419 6.063 1.917
		}
	}
	JOINT sm-H-Z611
	{
		OFFSET -34.082 -14.682 29.052
		CHANNELS 6 Xposition Yposition Zposition Xrotation Yrotation Zrotation
		End Site
		{
			OFFSET 19.269 -2.220 2.102
		}
	}
	JOINT sm-B-Z630
	{
		OFFSET -7.709 -15.322 21.914
		CHANNELS 6 Xposition Yposition Zposition Xrotation Yrotation Zrotation
		End Site
		{
			OFFSET -7.050 2.077 -12.649
		}
	}
	JOINT sm-T-Z641
	{
		OFFSET -22.286 -15.184 -3.821
		CHANNELS 6 Xposition Yposition Zposition Xrotation Yrotation Zrotation
		End Site
		{
			OFFSET 6.031 5.146 -0.673
		}
	}
	JOINT sm-H-Z650
	{
		OFFSET -19.454 -3.649 0.963
		CHANNELS 6 Xposition Yposition Zposition Xrotation Yrotation Zrotation
		End Site
		{
			OFFSET 1.834 -0.847 11.583
		}
	}
	JOINT sm-H-Z662
	{
		OFFSET -11.968 -2.126 14.162
		CHANNELS 6 Xposition Yposition Zposition Xrotation Yrotation Zrotation
		End Site
		{
			OFFSET 5.593 4.362 5.017
		}
	}
	JOINT sm-T-Z671
	{
		OFFSET -1.164 4.409 19.869
		CHANNELS 6 Xposition Yposition Zposition Xrotation Yrotation Zrotation
		End Site
		{
			OFFSET 11.073 -3.732 -4.047
		}
	}
	JOINT sm-H-Z679
	{
		OFFSET 16.491 0.824 13.909
		CHANNELS 6 Xposition Yposition Zposition Xrotation Yrotation Zrotation
		End Site
		{
			OFFSET 0.039 4.467 -6.003
		}
	}
	JOINT sm-G-Z691
	{
		OFFSET 24.088 14.575 10.511
		CHANNELS 6 Xposition Yposition Zposition Xrotation Yrotation Zrotation
		End Site
		{
			OFFSET 4.231 -8.489 4.621
		}
	}
	JOINT sm-H-Z701
	{
		OFFSET 20.245 5.840 18.938
		CHANNELS 6 Xposition Yposition Zposition Xrotation Yrotation Zrotation
		End Site
		{
			OFFSET -4.848 9.880 -2.818
		}
	}
	JOINT sm-_-Z714
	{
		OFFSET 6.982 15.833 19.564
		CHANNELS 6 Xposition Yposition Zposition Xrotation Yrotation Zrotation
		End Site
		{
			OFFSET 1.457 -7.470 2.072
		}
	}
	JOINT sm-H-Z732
	{
		OFFSET 4.240 8.807 9.457
		CHANNELS 6 Xposition Yposition Zposition Xrotation Yrotation Zrotation
		End Site
		{
			OFFSET 38.255 31.843 -58.986
		}
	}
	JOINT sm-H-Z791
	{
		OFFSET 45.386 45.305 -55.346
		CHANNELS 6 Xposition Yposition Zposition Xrotation Yrotation Zrotation
		End Site
		{
			OFFSET 4.635 -4.711 -3.329
		}
	}
	JOINT sm-G-Z805
	{
		OFFSET 63.473 40.358 -51.488
		CHANNELS 6 Xposition Yposition Zposition Xrotation Yrotation Zrotation
		End Site
		{
			OFFSET -3.021 3.641 -6.432
		}
	}
	JOINT sm-T-Z815
	{
		OFFSET 58.107 47.284 -63.489
		CHANNELS 6 Xposition Yposition Zposition Xrotation Yrotation Zrotation
		End Site
		{
			OFFSET 0.419 7.511 -0.454
		}
	}
	JOINT sm-T-Z827
	{
		OFFSET 49.873 54.628 -63.596
		CHANNELS 6 Xposition Yposition Zposition Xrotation Yrotation Zrotation
		End Site
		{
			OFFSET -1.756 -6.725 -3.676
		}
	}
	JOINT sm-_-Z839
	{
		OFFSET 40.857 49.036 -64.290
		CHANNELS 6 Xposition Yposition Zposition Xrotation Yrotation Zrotation
		End Site
		{
			OFFSET 0.857 8.162 5.710
		}
	}
	JOINT sm-T-Z848
	{
		OFFSET 44.523 58.691 -52.767
		CHANNELS 6 Xposition Yposition Zposition Xrotation Yrotation Zrotation
		End Site
		{
			OFFSET 9.922 -0.316 3.848
		}
	}
	JOINT sm-_-Z856
	{
		OFFSET 57.735 54.840 -54.914
		CHANNELS 6 Xposition Yposition Zposition Xrotation Yrotation Zrotation
		End Site
		{
			OFFSET -0.912 -4.637 3.523
		}
	}
	JOINT sm-T-Z864
	{
		OFFSET 53.436 49.196 -47.251
		CHANNELS 6 Xposition Yposition Zposition Xrotation Yrotation Zrotation
		End Site
		{
			OFFSET -4.196 -5.458 5.371
		}
	}
	JOINT sm-_-Z873
	{
		OFFSET 50.911 34.235 -38.688
		CHANNELS 6 Xposition Yposition Zposition Xrotation Yrotation Zrotation
		End Site
		{
			OFFSET -3.355 -6.602 3.228
		}
	}
	JOINT sm-_-Z887
	{
		OFFSET 42.718 15.949 -32.348
		CHANNELS 6 Xposition Yposition Zposition Xrotation Yrotation Zrotation
		End Site
		{
			OFFSET -2.786 2.231 -7.114
		}
	}
	JOINT sm-H-Z896
	{
		OFFSET 31.761 21.323 -40.304
		CHANNELS 6 Xposition Yposition Zposition Xrotation Yrotation Zrotation
		End Site
		{
			OFFSET -1.599 9.658 3.199
		}
	}
	JOINT sm-_-Z909
	{
		OFFSET 29.153 35.724 -40.978
		CHANNELS 6 Xposition Yposition Zposition Xrotation Yrotation Zrotation
		End Site
		{
			OFFSET 3.671 -2.561 -6.489
		}
	}
	JOINT sm-H-Z931
	{
		OFFSET 45.691 22.804 -43.568
		CHANNELS 6 Xposition Yposition Zposition Xrotation Yrotation Zrotation
		End Site
		{
			OFFSET 2.062 8.186 -3.291
		}
	}
	JOINT sm-_-Z943
	{
		OFFSET 35.647 34.631 -27.625
		CHANNELS 6 Xposition Yposition Zposition Xrotation Yrotation Zrotation
		End Site
		{
			OFFSET -2.286 5.888 20.964
		}
	}
	JOINT sm-H-Z953
	{
		OFFSET 34.109 37.787 -12.105
		CHANNELS 6 Xposition Yposition Zposition Xrotation Yrotation Zrotation
		End Site
		{
			OFFSET -3.676 -3.462 -12.679
		}
	}
	JOINT sm-T-Z965
	{
		OFFSET 29.560 34.160 -29.237
		CHANNELS 6 Xposition Yposition Zposition Xrotation Yrotation Zrotation
		End Site
		{
			OFFSET -4.950 2.656 5.069
		}
	}
	JOINT sm-H-Z974
	{
		OFFSET 21.385 29.483 -21.160
		CHANNELS 6 Xposition Yposition Zposition Xrotation Yrotation Zrotation
		End Site
		{
			OFFSET 6.769 -0.915 7.136
		}
	}
	JOINT sm-_-Z986
	{
		OFFSET 24.237 24.406 -8.868
		CHANNELS 6 Xposition Yposition Zposition Xrotation Yrotation Zrotation
		End Site
		{
			OFFSET -7.998 1.699 -3.272
		}
	}
	JOINT sm-S-Z1000
	{
		OFFSET 17.162 26.836 -25.911
		CHANNELS 6 Xposition Yposition Zposition Xrotation Yrotation Zrotation
		End Site
		{
			OFFSET 2.707 10.418 3.129
		}
	}
	JOINT sm-H-Z1009
	{
		OFFSET 23.191 41.539 -16.756
		CHANNELS 6 Xposition Yposition Zposition Xrotation Yrotation Zrotation
		End Site
		{
			OFFSET -1.082 -9.591 10.458
		}
	}
	JOINT sm-H-Z1027
	{
		OFFSET 26.821 14.179 2.883
		CHANNELS 6 Xposition Yposition Zposition Xrotation Yrotation Zrotation
		End Site
		{
			OFFSET -3.632 -7.623 -2.809
		}
	}
	JOINT sm-S-Z1039
	{
		OFFSET 25.845 -3.348 3.053
		CHANNELS 6 Xposition Yposition Zposition Xrotation Yrotation Zrotation
		End Site
		{
			OFFSET 1.516 1.811 -8.431
		}
	}
	JOINT sm-H-Z1047
	{
		OFFSET 24.643 -0.199 -11.245
		CHANNELS 6 Xposition Yposition Zposition Xrotation Yrotation Zrotation
		End Site
		{
			OFFSET -5.131 8.328 -2.379
		}
	}
	JOINT sm-H-Z1063
	{
		OFFSET 25.998 10.390 -20.582
		CHANNELS 6 Xposition Yposition Zposition Xrotation Yrotation Zrotation
		End Site
		{
			OFFSET 10.723 -0.385 5.596
		}
	}
	JOINT sm-_-Z1075
	{
		OFFSET 35.399 -0.128 -10.697
		CHANNELS 6 Xposition Yposition Zposition Xrotation Yrotation Zrotation
		End Site
		{
			OFFSET -3.952 -3.078 2.868
		}
	}
	JOINT sm-H-Z1085
	{
		OFFSET 32.805 6.237 -2.860
		CHANNELS 6 Xposition Yposition Zposition Xrotation Yrotation Zrotation
		End Site
		{
			OFFSET 1.694 9.714 -3.288
		}
	}
}
MOTION
Frames: 2
Frame Time: 0.01400
2.04083 -24.17689 -1.89309 -0.401 -0.874 0.043 6.68069 -10.26501 -6.43069 0.600 -2.085 -0.000 -0.18926 11.54400 -3.15757 0.862 0.663 -0.379 -13.74098 3.01646 -2.87370 0.190 -2.944 0.718 -11.26803 23.03182 -0.83482 1.649 1.277 0.014 -9.83471 5.74853 -14.44354 1.762 0.851 -0.332 2.97872 -2.46173 -0.94026 -0.054 0.505 -0.208 0.16733 -3.17743 9.32650 0.954 -0.541 0.028 -8.87641 1.34182 4.36972 0.015 1.276 0.217 -6.30458 -15.39588 -1.64925 -0.248 0.067 -0.794 -14.78557 -20.00153 -0.66065 -0.338 0.377 -0.065 -0.63995 -31.11415 5.23598 -0.717 0.146 -0.381 5.05324 -17.78461 13.73203 0.036 0.509 0.581 -3.78899 -21.75673 11.79095 -0.873 0.594 -0.786 -4.09430 -22.20407 29.37625 0.270 0.042 1.048 -17.45147 -22.61931 10.44791 -0.547 0.468 0.046 -3.13792 -34.72479 17.32167 -0.207 1.225 0.165 -12.87519 -39.33354 18.56338 0.581 -0.360 0.483 -27.79818 -19.47399 3.03386 -0.610 0.543 -0.663 -21.79331 -22.14127 20.91062 -0.685 0.521 0.099 -1.02234 -33.81553 28.81483 0.820 0.524 0.510 -38.28776 -21.95530 15.08787 -0.618 -0.065 1.309 -35.80958 -25.06549 6.74837 -0.710 1.419 0.141 -36.53373 -46.39808 5.77940 0.540 -0.126 -0.942 -45.39420 -31.80653 3.52780 -1.290 -1.296 -0.084 -35.79677 -27.36065 -0.54119 -1.142 0.571 0.216 -28.53703 -38.66369 4.88866 -0.996 0.475 -0.529 -33.24436 -45.99958 21.28596 0.263 -0.969 0.880 -70.66808 -21.68458 19.30354 -1.272 0.109 0.360 -54.80546 -36.79790 14.87739 -1.069 0.202 0.164 -56.77731 -36.92606 25.04156 -0.968 -2.046 0.159 -55.74806 -22.46002 43.44794 -0.602 -0.323 3.214 -56.60362 -19.36205 18.94810 -0.908 0.195 0.202 -7.05539 -31.76815 33.01325 -0.108 -0.101 0.903 -22.25550 -13.09572 16.02896 0.243 -0.360 0.314 -33.29162 -9.80415 18.67857 -0.061 0.048 -0.131 2.72821 5.56724 29.73835 0.699 0.254 -0.465 -18.64839 0.40954 27.81073 0.339 0.420 -0.130 -33.46079 -4.64463 31.24927 0.421 0.655 -0.068 -44.97568 -9.70765 33.31226 0.131 -0.204 0.586 -46.65926 -1.26741 25.94609 -0.799 -0.125 -0.151 -32.40012 9.11964 29.29629 -0.552 0.276 0.335 -34.41390 8.38914 15.76957 -0.428 0.315 0.297 -37.68481 0.52973 10.81340 -0.825 0.087 -0.378 -41.12420 -4.86320 19.37075 -0.345 0.546 -0.127 -50.35173 -28.09403 30.57645 -1.376 1.127 0.371 -41.20518 -41.95930 27.72698 -0.915 -0.057 0.187 -34.07896 -14.85682 29.11849 -0.395 0.205 0.066 -7.63920 -15.41833 22.04851 0.168 0.165 0.957 -22.09492 -15.21607 -3.72569 -0.896 -0.240 0.231 -19.34146 -3.70628 1.08613 -0.145 0.349 -0.475 -11.92881 -2.20377 14.34171 -0.545 -0.093 -0.652 -1.15415 4.49308 20.04358 -1.839 0.357 -0.213 16.45313 1.12443 14.04255 -0.374 -0.588 -0.245 24.02322 14.88856 10.60092 -0.541 0.400 -0.505 20.18157 6.08913 19.11637 0.015 -0.979 -0.337 6.88735 15.92939 19.79436 -0.605 0.969 -0.884 4.17651 8.93347 9.50922 -0.378 -0.636 0.988 45.65315 44.94390 -55.51844 -1.291 5.504 2.863 63.67024 39.89286 -51.10996 3.394 0.453 4.264 58.80367 46.50897 -63.57345 1.552 -3.665 1.408 50.59573 53.97129 -64.08675 2.355 3.547 1.187 41.48755 48.59841 -65.16557 1.644 -2.103 -2.041 44.73128 58.53060 -53.43147 -3.754 2.513 -1.649 57.97274 54.49855 -55.03817 2.551 4.037 -1.225 53.41301 49.11159 -47.49959 0.946 1.417 -0.731 50.61416 34.02533 -38.99174 0.915 1.331 0.578 41.99001 15.96627 -32.59399 -0.177 -0.886 2.027 31.33923 21.73482 -40.35091 -0.023 -3.524 0.925 28.93857 36.16289 -40.99543 -0.944 -0.163 3.353 45.21547 22.66327 -43.83313 -0.203 -0.652 1.935 36.09964 34.76472 -27.57801 0.074 -1.671 -1.050 34.32099 37.98320 -12.10119 0.080 -0.784 3.188 29.65486 34.58418 -29.12730 2.542 -2.994 -1.502 21.38108 29.90040 -21.04451 -2.040 -0.750 0.006 24.22841 24.94695 -8.65293 -0.207 -1.035 1.727 17.13249 27.55291 -25.61627 -0.800 -2.347 1.372 23.60560 42.01793 -16.51950 -0.009 1.948 -1.420 26.66417 14.50021 2.96113 0.752 1.396 1.553 25.44505 -3.07775 3.00982 -0.441 -1.315 1.632 24.12033 0.26750 -11.15623 0.086 -1.688 1.370 25.51324 10.64772 -20.62931 -3.494 -0.737 -0.267 34.75219 0.04154 -10.85884 1.846 0.511 -0.182 32.59010 6.39441 -2.94014 -0.354 -1.464 1.356 
2.19748 -24.16778 -1.74684 -0.755 -1.606 0.027 6.86186 -10.23546 -6.18644 0.961 -3.493 -0.062 -0.13028 11.50961 -3.08582 1.481 1.147 -0.737 -13.65633 2.91283 -2.88083 0.217 -4.715 1.123 -11.23305 22.93137 -0.99276 2.501 2.271 0.033 -9.68374 5.51127 -14.48263 2.775 1.302 -0.695 3.09302 -2.44889 -0.75325 -0.179 0.824 -0.427 0.20862 -3.15366 9.49558 1.468 -0.874 -0.010 -8.76985 1.32865 4.50482 -0.080 2.170 0.322 -6.19077 -15.41546 -1.51525 -0.479 0.148 -1.327 -14.64743 -20.00784 -0.59546 -0.628 0.649 -0.127 -0.54729 -31.15407 5.33343 -1.295 0.257 -0.693 5.12981 -17.83350 13.91314 0.080 0.873 1.116 -3.75891 -21.86862 11.90735 -1.553 1.057 -1.357 -4.08255 -22.33292 29.46273 0.459 0.032 1.865 -17.39812 -22.67913 10.47217 -0.983 0.812 0.073 -3.15127 -34.83728 17.28082 -0.342 2.096 0.296 -12.87022 -39.39111 18.47790 1.014 -0.623 0.840 -27.73019 -19.45979 3.01745 -1.079 1.008 -1.182 -21.80087 -22.26883 20.92195 -1.185 0.891 0.174 -1.05947 -33.97962 28.82596 1.434 0.887 0.903 -38.23171 -21.91817 15.03855 -1.085 -0.088 2.221 -35.77144 -25.01919 6.63692 -1.212 2.467 0.279 -36.55433 -46.34913 5.49468 0.977 -0.152 -1.667 -45.34555 -31.69728 3.40022 -2.260 -2.193 -0.243 -35.73058 -27.24615 -0.64236 -1.894 0.995 0.390 -28.53592 -38.66931 4.71033 -1.747 0.939 -0.966 -33.27272 -46.04131 21.05893 0.514 -1.685 1.542 -70.64412 -21.63617 19.19353 -1.983 0.226 0.641 -54.83070 -36.79504 14.63206 -1.717 0.403 0.358 -56.80261 -36.98559 24.84292 -1.659 -3.467 0.185 -55.75725 -22.67286 43.37882 -1.067 -0.530 5.255 -56.59582 -19.40632 18.87682 -1.406 0.339 0.379 -7.08441 -31.92870 33.04909 -0.203 -0.240 1.603 -22.18781 -13.14149 16.11206 0.458 -0.685 0.582 -33.23650 -9.85964 18.75272 -0.118 0.078 -0.204 2.75134 5.46590 29.90423 1.313 0.484 -0.766 -18.61118 0.26632 27.94090 0.648 0.805 -0.253 -33.43444 -4.79529 31.33052 0.806 1.260 -0.136 -44.95205 -9.84145 33.34801 0.250 -0.409 1.120 -46.61623 -1.39041 26.06770 -1.529 -0.227 -0.313 -32.34685 8.99644 29.47993 -1.058 0.521 0.642 -34.31388 8.37633 15.93030 -0.814 0.551 0.540 -37.61460 0.47479 10.94252 -1.545 0.181 -0.715 -41.08124 -4.94346 19.42191 -0.661 1.062 -0.260 -50.39163 -28.23841 30.39671 -2.280 1.902 0.665 -41.25897 -42.09895 27.51198 -1.613 -0.104 0.282 -34.06852 -15.00527 29.16680 -0.755 0.382 0.099 -7.57526 -15.49105 22.15063 0.279 0.264 1.739 -21.94337 -15.22083 -3.65289 -1.651 -0.426 0.332 -19.25231 -3.74500 1.19486 -0.312 0.581 -0.848 -11.89052 -2.26504 14.49678 -1.013 -0.180 -1.160 -1.13923 4.55445 20.18547 -3.304 0.497 -0.344 16.42292 1.35858 14.13551 -0.784 -1.019 -0.527 23.98151 15.11876 10.66242 -1.217 0.856 -0.957 20.14803 6.26461 19.25949 -0.164 -1.658 -0.618 6.83246 15.99184 19.99632 -1.283 1.896 -1.553 4.12464 9.03467 9.55990 -0.653 -1.138 1.771 45.87271 44.58809 -55.66057 -2.066 10.153 5.045 63.82517 39.36012 -50.81673 5.793 1.220 8.357 59.41716 45.74878 -63.65562 2.458 -7.021 3.349 51.23539 53.37376 -64.48945 4.310 6.369 2.163 42.07754 48.22992 -65.87616 3.060 -4.129 -3.173 45.01434 58.33935 -53.98113 -6.389 4.594 -2.650 58.23804 54.09145 -55.15418 4.987 7.269 -2.405 53.43558 48.97893 -47.70915 1.851 2.527 -0.931 50.32612 33.81585 -39.22958 1.882 2.511 1.179 41.29634 15.97751 -32.76248 -0.261 -1.740 3.856 30.93456 22.11092 -40.36036 -0.274 -6.615 1.799 28.73255 36.55613 -40.99121 -1.582 -0.172 6.548 44.76323 22.51132 -44.03504 -0.415 -1.184 3.745 36.43362 34.88854 -27.51589 0.172 -3.015 -1.684 34.46626 38.18144 -12.07593 0.231 -1.508 5.726 29.70415 34.97150 -29.01472 4.448 -5.615 -2.802 21.35378 30.27576 -20.93108 -3.724 -1.308 0.061 24.20206 25.41280 -8.46108 -0.430 -1.950 3.086 17.08034 28.17459 -25.35298 -1.640 -4.148 2.467 23.91598 42.43513 -16.30115 -0.062 3.517 -2.564 26.53312 14.76506 3.01506 1.431 2.620 2.852 25.11833 -2.84944 2.94136 -0.893 -2.465 3.072 23.68681 0.67743 -11.10342 0.060 -3.316 2.439 25.10516 10.90280 -20.67773 -6.418 -1.182 -0.392 34.22387 0.21069 -11.03197 3.307 0.915 -0.457 32.40664 6.54174 -3.01420 -0.816 -2.539 2.359 
